<?xml version="1.0" encoding="utf-8"?>
<!-- Generator: Adobe Illustrator 26.0.0, SVG Export Plug-In . SVG Version: 6.00 Build 0)  -->
<svg version="1.1" id="图层_1" xmlns="http://www.w3.org/2000/svg" xmlns:xlink="http://www.w3.org/1999/xlink" x="0px" y="0px"
	 viewBox="0 0 200 200" style="enable-background:new 0 0 200 200;" xml:space="preserve">
<style type="text/css">
	.st0{clip-path:url(#SVGID_00000182486545684026158810000008455316746132616846_);fill:#FFFFFF;}
	.st1{fill:#FFFFFF;}
	.st2{clip-path:url(#SVGID_00000005227968275507721930000007900009811594738860_);fill:#FFFFFF;}
	.st3{fill:none;}
</style>
<g>
	<g>
		<defs>
			<rect id="SVGID_1_" x="8.41" y="17.48" width="185.4" height="164.89"/>
		</defs>
		<clipPath id="SVGID_00000085930477770140900550000018151703456381582009_">
			<use xlink:href="#SVGID_1_"  style="overflow:visible;"/>
		</clipPath>
		<path style="clip-path:url(#SVGID_00000085930477770140900550000018151703456381582009_);fill:#FFFFFF;" d="M101.24,179.68
			c-23.8-0.02-46.61-9.49-63.42-26.34C21,136.5,11.57,113.67,11.59,89.88c0-3.36,2.73-6.09,6.09-6.09s6.09,2.73,6.09,6.09
			c0.11,32.53,20.52,61.54,51.1,72.63c30.58,11.1,64.84,1.93,85.79-22.96c20.95-24.89,24.14-60.21,7.98-88.45
			c-1.69-2.93-0.69-6.68,2.25-8.38c2.93-1.69,6.68-0.69,8.38,2.25c16.06,27.82,16.04,62.11-0.06,89.91
			C163.09,162.69,133.36,179.77,101.24,179.68L101.24,179.68z M101.24,179.68"/>
		<path style="clip-path:url(#SVGID_00000085930477770140900550000018151703456381582009_);fill:#FFFFFF;" d="M101.24,182.01
			c-50.81-0.09-91.94-41.32-91.9-92.13c0-4.65,3.77-8.41,8.41-8.41s8.41,3.77,8.41,8.41C26.1,121.62,45.93,150,75.75,160.87
			c29.83,10.86,63.26,1.88,83.62-22.47c20.36-24.35,23.29-58.85,7.32-86.28c-1.9-3.98-0.43-8.75,3.39-10.96
			c3.81-2.21,8.69-1.12,11.19,2.51c16.56,28.55,16.58,63.78,0.05,92.35C164.79,164.58,134.24,182.13,101.24,182.01L101.24,182.01z
			 M17.71,86.08c-2.04,0.04-3.68,1.68-3.72,3.72c-0.01,35.18,21.04,66.94,53.43,80.65c21.81,9.13,46.36,9.13,68.17,0
			c23.12-9.79,40.92-29.03,48.89-52.84c7.97-23.81,5.33-49.89-7.25-71.63c-1.16-1.52-3.28-1.94-4.93-0.98
			c-1.66,0.97-2.33,3.01-1.58,4.78c16.87,29.13,13.72,65.7-7.9,91.51s-57.07,35.33-88.7,23.82c-31.63-11.5-52.69-41.57-52.68-75.24
			c0.02-1-0.36-1.97-1.06-2.68C19.67,86.48,18.72,86.08,17.71,86.08L17.71,86.08z M17.71,86.08"/>
	</g>
	<path class="st1" d="M140.01,133.38c-2.18,0.01-4.15-1.27-5.04-3.26l-21.48-51.42c-0.52-1.33-0.46-2.82,0.16-4.11
		c0.62-1.29,1.74-2.27,3.1-2.71c2.76-1.14,5.93,0.14,7.13,2.87l21.56,51.34c0.53,1.3,0.5,2.77-0.07,4.05
		c-0.57,1.29-1.64,2.29-2.96,2.77c-0.67,0.12-1.35,0.12-2.02,0L140.01,133.38z M107.36,133.38c-2.18,0.01-4.15-1.27-5.04-3.26
		L80.76,78.71c-0.55-1.31-0.54-2.8,0.03-4.1c0.57-1.3,1.65-2.32,2.99-2.8c2.76-1.14,5.93,0.14,7.13,2.87l21.56,51.34
		c0.53,1.3,0.5,2.77-0.07,4.05c-0.57,1.29-1.64,2.29-2.96,2.77c-0.67,0.12-1.35,0.12-2.02,0L107.36,133.38z M74.71,133.38
		c-2.14,0.03-4.11-1.18-5.04-3.1L48.12,78.71c-0.55-1.31-0.54-2.8,0.03-4.1c0.57-1.3,1.65-2.32,2.99-2.8
		c2.76-1.14,5.93,0.14,7.13,2.87l21.56,51.34c0.53,1.3,0.5,2.77-0.07,4.05c-0.57,1.29-1.64,2.29-2.96,2.77
		c-0.67,0.12-1.35,0.12-2.02,0L74.71,133.38z M74.71,133.38"/>
	<g>
		<defs>
			<rect id="SVGID_00000075861815088456916600000006955455041700996781_" x="8.41" y="17.48" width="185.4" height="164.89"/>
		</defs>
		<clipPath id="SVGID_00000032649433125014546940000002993703187643101844_">
			<use xlink:href="#SVGID_00000075861815088456916600000006955455041700996781_"  style="overflow:visible;"/>
		</clipPath>
		<path style="clip-path:url(#SVGID_00000032649433125014546940000002993703187643101844_);fill:#FFFFFF;" d="M140.01,135.71
			c-3.14,0.03-5.99-1.84-7.21-4.73l-21.48-51.34c-0.73-1.84-0.73-3.9,0-5.74c0.81-1.91,2.34-3.42,4.27-4.19
			c3.94-1.61,8.44,0.26,10.08,4.19l21.56,51.34c0.73,1.84,0.73,3.9,0,5.74c-0.81,1.91-2.34,3.42-4.27,4.19
			C142.02,135.53,141.02,135.71,140.01,135.71L140.01,135.71z M118.45,73.67c-0.41-0.08-0.83-0.08-1.24,0
			c-0.77,0.29-1.38,0.88-1.71,1.63c-0.3,0.69-0.3,1.48,0,2.17l21.56,51.34c0.74,1.57,2.58,2.29,4.19,1.63
			c0.77-0.29,1.38-0.88,1.71-1.63c0.29-0.69,0.29-1.48,0-2.17L121.4,76c-0.4-1.26-1.55-2.13-2.87-2.17L118.45,73.67z M107.36,135.71
			c-3.14,0.03-5.99-1.84-7.21-4.73L78.67,79.64c-0.73-1.84-0.73-3.9,0-5.74c0.81-1.91,2.34-3.42,4.27-4.19
			c3.94-1.61,8.44,0.26,10.08,4.19l21.56,51.34c0.73,1.84,0.73,3.9,0,5.74c-0.81,1.91-2.34,3.42-4.27,4.19
			c-0.92,0.35-1.89,0.53-2.87,0.54H107.36z M85.73,73.82c-0.38-0.07-0.78-0.07-1.16,0c-0.86,0.43-1.46,1.23-1.63,2.17
			c-0.29,0.69-0.29,1.48,0,2.17l21.56,51.34c0.74,1.57,2.58,2.29,4.19,1.63c0.77-0.29,1.38-0.88,1.71-1.63
			c0.29-0.69,0.29-1.48,0-2.17L88.75,76C88.34,74.68,87.11,73.8,85.73,73.82L85.73,73.82z M74.64,135.87
			c-3.14,0.03-5.99-1.84-7.21-4.73L45.94,79.64c-0.73-1.84-0.73-3.9,0-5.74c0.81-1.91,2.34-3.42,4.27-4.19
			c3.94-1.61,8.44,0.26,10.08,4.19l21.56,51.34c0.73,1.84,0.73,3.9,0,5.74c-0.81,1.91-2.34,3.42-4.27,4.19
			c-0.92,0.35-1.89,0.53-2.87,0.54L74.64,135.87z M53.08,73.82c-0.41-0.08-0.83-0.08-1.24,0c-0.86,0.43-1.46,1.23-1.63,2.17
			c-0.29,0.69-0.29,1.48,0,2.17l21.56,51.34c0.74,1.57,2.58,2.29,4.19,1.63c0.95-0.28,1.7-1,2.02-1.94c0.29-0.69,0.29-1.48,0-2.17
			L56.03,76c-0.4-1.26-1.55-2.13-2.87-2.17H53.08z M11.36,67.23c0,2.54,1.53,4.83,3.88,5.8c2.35,0.97,5.05,0.43,6.84-1.36
			c1.8-1.8,2.33-4.5,1.36-6.85c-0.97-2.35-3.26-3.88-5.8-3.88C14.17,60.95,11.36,63.76,11.36,67.23L11.36,67.23z M11.36,67.23"/>
		<path style="clip-path:url(#SVGID_00000032649433125014546940000002993703187643101844_);fill:#FFFFFF;" d="M17.71,76.46
			c-3.74,0.03-7.13-2.2-8.58-5.64c-1.45-3.45-0.68-7.43,1.95-10.08c2.63-2.66,6.61-3.46,10.07-2.04c3.46,1.42,5.71,4.79,5.71,8.53
			C26.87,72.3,22.78,76.42,17.71,76.46L17.71,76.46z M17.71,63.9c-1.88,0-3.41,1.53-3.41,3.41c0,1.89,1.53,3.41,3.41,3.41
			c1.89,0,3.41-1.53,3.41-3.41c0.02-0.92-0.33-1.81-0.97-2.46c-0.64-0.66-1.52-1.03-2.44-1.03V63.9z M183.91,179.76
			c-1.68,0-3.29-0.7-4.42-1.94l-22.26-23.27c-1.65-1.56-2.32-3.9-1.75-6.1c0.57-2.2,2.3-3.91,4.51-4.47c2.2-0.55,4.54,0.14,6.08,1.8
			l22.18,23.27c1.69,1.76,2.15,4.35,1.19,6.59c-0.97,2.24-3.18,3.67-5.61,3.65L183.91,179.76z M183.91,179.76"/>
		<path style="clip-path:url(#SVGID_00000032649433125014546940000002993703187643101844_);fill:#FFFFFF;" d="M183.91,182.09
			c-2.32,0.03-4.55-0.93-6.13-2.64l-22.26-23.27c-3.17-3.38-3-8.7,0.39-11.87c3.38-3.17,8.7-3,11.87,0.39l22.18,23.27
			c2.35,2.43,3,6.03,1.66,9.14c-1.34,3.1-4.41,5.1-7.79,5.05L183.91,182.09z M161.65,146.26c-0.95,0-1.87,0.36-2.56,1.01
			c-0.71,0.66-1.13,1.58-1.16,2.56c-0.04,1,0.32,1.98,1.01,2.71l22.26,23.27c0.57,0.85,1.45,1.44,2.46,1.63
			c1.01,0.19,2.05-0.04,2.89-0.63c0.72-0.66,1.13-1.58,1.16-2.56c0.04-1-0.32-1.98-1.01-2.71l-22.18-23.27
			c-0.66-0.71-1.58-1.13-2.56-1.16L161.65,146.26z M53.16,82.04c-0.67,0.12-1.35,0.12-2.02,0c-1.34-0.48-2.42-1.5-2.99-2.8
			c-0.57-1.31-0.58-2.79-0.03-4.1l21.56-51.73c1.21-2.73,4.37-4.01,7.13-2.87c1.32,0.49,2.39,1.49,2.96,2.77
			c0.57,1.29,0.59,2.75,0.07,4.05L58.2,78.71c-0.89,1.99-2.86,3.26-5.04,3.26V82.04z M85.8,82.04c-0.67,0.12-1.35,0.12-2.02,0
			c-1.34-0.48-2.42-1.5-2.99-2.8c-0.57-1.31-0.58-2.79-0.03-4.1l21.56-51.34c1.21-2.73,4.37-4.01,7.13-2.87
			c1.32,0.48,2.39,1.48,2.96,2.77c0.57,1.29,0.59,2.75,0.07,4.05L90.92,78.71c-0.89,1.99-2.86,3.26-5.04,3.26L85.8,82.04z
			 M118.45,82.04c-0.67,0.12-1.35,0.12-2.02,0c-1.34-0.48-2.42-1.5-2.99-2.8c-0.57-1.31-0.58-2.79-0.03-4.1l21.56-51.34
			c1.21-2.73,4.37-4.01,7.13-2.87c1.32,0.48,2.39,1.48,2.96,2.77c0.57,1.29,0.59,2.75,0.07,4.05l-21.56,50.95
			c-0.89,1.99-2.86,3.26-5.04,3.26L118.45,82.04z M118.45,82.04"/>
		<path style="clip-path:url(#SVGID_00000032649433125014546940000002993703187643101844_);fill:#FFFFFF;" d="M118.53,84.37
			c-0.98-0.01-1.95-0.19-2.87-0.54c-1.95-0.75-3.52-2.26-4.34-4.19c-0.75-1.87-0.75-3.95,0-5.82l21.56-51.34
			c1.64-3.93,6.14-5.79,10.08-4.19c1.92,0.77,3.46,2.28,4.27,4.19c0.73,1.84,0.73,3.9,0,5.74l-21.48,51.42
			C124.52,82.53,121.67,84.4,118.53,84.37L118.53,84.37z M140.09,22.33c-1.24-0.01-2.37,0.72-2.87,1.86L115.58,76
			c-0.3,0.69-0.3,1.48,0,2.17c0.32,0.75,0.94,1.34,1.71,1.63c1.58,0.57,3.35-0.13,4.11-1.63l21.56-51.34c0.29-0.69,0.29-1.48,0-2.17
			c-0.32-0.75-0.94-1.34-1.71-1.63c-0.36-0.29-0.79-0.51-1.24-0.62L140.09,22.33z M85.8,84.37c-0.99-0.02-1.96-0.23-2.87-0.62
			c-1.95-0.75-3.52-2.26-4.34-4.19c-0.73-1.84-0.73-3.9,0-5.74l21.64-51.34c1.64-3.93,6.14-5.79,10.08-4.19
			c1.92,0.77,3.46,2.28,4.27,4.19c0.73,1.84,0.73,3.9,0,5.74L93.02,79.64c-1.24,2.92-4.12,4.79-7.29,4.73H85.8z M107.36,22.33
			c-1.24-0.01-2.37,0.72-2.87,1.86L82.94,76c-0.29,0.69-0.29,1.48,0,2.17c0.32,0.75,0.94,1.34,1.71,1.63
			c1.58,0.57,3.35-0.13,4.11-1.63l21.56-51.34c0.29-0.69,0.29-1.48,0-2.17c-0.32-0.75-0.94-1.34-1.71-1.63
			c-0.36-0.29-0.79-0.51-1.24-0.62V22.33z M53.08,84.37c-0.96-0.03-1.91-0.24-2.79-0.62c-1.95-0.75-3.52-2.26-4.34-4.19
			c-0.73-1.84-0.73-3.9,0-5.74L67.5,22.49c0.78-1.98,2.35-3.56,4.33-4.35c1.98-0.79,4.2-0.73,6.14,0.16
			c1.92,0.77,3.46,2.28,4.27,4.19c0.73,1.84,0.73,3.9,0,5.74L60.37,79.64c-1.23,2.89-4.07,4.76-7.21,4.73H53.08z M74.64,22.33
			c-1.24-0.01-2.37,0.72-2.87,1.86L50.21,76c-0.29,0.69-0.29,1.48,0,2.17c0.32,0.75,0.94,1.34,1.71,1.63
			c1.58,0.57,3.35-0.13,4.11-1.63l21.95-51.73c0.29-0.69,0.29-1.48,0-2.17c-0.32-0.75-0.94-1.34-1.71-1.63
			c-0.49-0.2-1.02-0.28-1.55-0.23L74.64,22.33z M74.64,22.33"/>
	</g>
</g>
<rect class="st3" width="200" height="200"/>
</svg>
