<?xml version="1.0" encoding="utf-8"?>
<!-- Generator: Adobe Illustrator 26.0.0, SVG Export Plug-In . SVG Version: 6.00 Build 0)  -->
<svg version="1.1" xmlns="http://www.w3.org/2000/svg" xmlns:xlink="http://www.w3.org/1999/xlink" x="0px" y="0px"
	 viewBox="0 0 200 200" style="enable-background:new 0 0 200 200;" xml:space="preserve">
<style type="text/css">
	.st0{fill:none;}
	.st1{clip-path:url(#SVGID_00000130648037882642209190000008674850761724530840_);fill:#000;}
	.st2{fill:#000;}
</style>
<g id="图层_2">
	<rect y="-0.08" class="st0" width="200" height="200"/>
</g>
<g id="图层_1">
	<g>
		<defs>
			<rect id="SVGID_1_" x="22.81" y="2.4" width="153.57" height="194.52"/>
		</defs>
		<clipPath id="SVGID_00000155833471844415722280000007828014542994839177_">
			<use xlink:href="#SVGID_1_"  style="overflow:visible;"/>
		</clipPath>
		<path style="clip-path:url(#SVGID_00000155833471844415722280000007828014542994839177_);fill:#000;" d="M170.56,29.86
			c-29.9-3.38-52.39-11.47-66.86-24.05L99.9,2.5l-4.1,2.93C73.12,21.61,50.71,29.82,29.17,29.82h-6.39v89.51
			c0,27.44,24.19,52.34,73.97,76.1l2.61,1.25l2.67-1.14c49.24-21.15,74.2-46.79,74.2-76.2V30.5L170.56,29.86z M163.44,119.33
			c0,23.34-21.46,44.63-63.8,63.3c-42.52-20.74-64.07-42.03-64.07-63.3V42.4c20.91-1.36,42.28-9.33,63.64-23.77
			c15.33,11.69,36.9,19.48,64.24,23.22V119.33z M163.44,119.33"/>
	</g>
	<path class="st2" d="M69.09,91.49c-1.51-1.71-3.83-2.49-6.06-2.03c-2.24,0.45-4.07,2.07-4.79,4.24c-0.73,2.17-0.24,4.56,1.27,6.27
		l24.34,27.54c2.52,2.85,6.03,4.31,9.57,4.31c3.85,0,7.49-1.73,9.93-4.7l39.48-48.5c2.23-2.74,1.82-6.77-0.92-9
		c-2.74-2.23-6.77-1.82-9,0.92l-39.48,48.49L69.09,91.49z M69.09,91.49"/>
</g>
</svg>
