<?xml version="1.0" encoding="utf-8"?>
<!-- Generator: Adobe Illustrator 26.0.0, SVG Export Plug-In . SVG Version: 6.00 Build 0)  -->
<svg version="1.1" xmlns="http://www.w3.org/2000/svg" xmlns:xlink="http://www.w3.org/1999/xlink" x="0px" y="0px"
	 viewBox="0 0 200 200" style="enable-background:new 0 0 200 200;" xml:space="preserve">
<style type="text/css">
	.st0{fill:none;}
	.st1{fill:#000;}
</style>
<g id="图层_2">
	<rect y="-0.08" class="st0" width="200" height="200"/>
</g>
<g id="图层_1">
	<g>
		<path class="st1" d="M84.19,149.29H73.39v-32.42h54.04v32.42H84.19z M84.19,138.48h32.42v-10.81H84.19V138.48z M13.94,69.31
			l9.73,5.4c-3.24,8.65-4.32,17.29-4.32,25.94c0,8.65,1.08,17.29,4.32,25.94l-9.73,5.4c-3.24-9.73-5.4-20.53-5.4-31.34
			C8.54,89.85,10.7,79.04,13.94,69.31L13.94,69.31z M30.16,41.21C44.21,25,62.58,13.11,84.19,8.79V19.6
			C66.9,23.92,50.69,33.65,38.8,46.62L30.16,41.21z M186.86,132l-9.73-5.4c2.16-7.57,4.32-17.29,4.32-25.94
			c0-8.65-1.08-17.29-4.32-25.94l9.73-5.4c3.24,9.73,5.4,20.53,5.4,31.34C192.27,111.46,190.11,122.27,186.86,132L186.86,132z
			 M170.65,160.09c-14.05,16.21-32.42,28.1-54.04,32.42v-10.81c17.29-3.24,33.5-12.97,45.39-27.02L170.65,160.09z M30.16,160.09
			l8.65-5.4c11.89,12.97,27.02,22.7,45.39,27.02v10.81C62.58,188.19,43.12,176.31,30.16,160.09L30.16,160.09z M170.65,41.21
			l-8.65,5.4c-11.89-12.97-27.02-22.7-45.39-27.02V8.79C138.23,13.11,157.68,25,170.65,41.21L170.65,41.21z M100.4,25
			c-6.48,0-10.81-4.32-10.81-10.81c0-6.48,4.32-10.81,10.81-10.81c6.48,0,10.81,4.32,10.81,10.81C111.21,20.68,106.89,25,100.4,25
			L100.4,25z M100.4,197.92c-6.48,0-10.81-4.32-10.81-10.81c0-6.48,4.32-10.81,10.81-10.81c6.48,0,10.81,4.32,10.81,10.81
			C111.21,193.6,106.89,197.92,100.4,197.92L100.4,197.92z M24.75,154.69c-6.48,0-10.81-4.32-10.81-10.81
			c0-6.48,4.32-10.81,10.81-10.81c6.48,0,10.81,4.32,10.81,10.81C35.56,150.37,31.24,154.69,24.75,154.69L24.75,154.69z
			 M176.06,154.69c-6.48,0-10.81-4.32-10.81-10.81c0-6.48,4.32-10.81,10.81-10.81c6.48,0,10.81,4.32,10.81,10.81
			C186.86,150.37,182.54,154.69,176.06,154.69L176.06,154.69z M24.75,68.23c-6.48,0-10.81-4.32-10.81-10.81
			c0-6.48,4.32-10.81,10.81-10.81c6.48,0,10.81,4.32,10.81,10.81C35.56,63.91,31.24,68.23,24.75,68.23L24.75,68.23z M176.06,68.23
			c-6.48,0-10.81-4.32-10.81-10.81c0-6.48,4.32-10.81,10.81-10.81c6.48,0,10.81,4.32,10.81,10.81
			C186.86,63.91,182.54,68.23,176.06,68.23L176.06,68.23z M127.42,79.04c0,15.13-11.89,27.02-27.02,27.02
			c-15.13,0-27.02-11.89-27.02-27.02c0-15.13,11.89-27.02,27.02-27.02C115.53,52.02,127.42,63.91,127.42,79.04L127.42,79.04z
			 M116.61,79.04c0-8.65-7.56-16.21-16.21-16.21c-8.65,0-16.21,7.56-16.21,16.21c0,8.65,7.57,16.21,16.21,16.21
			C109.05,95.25,116.61,87.68,116.61,79.04L116.61,79.04z M116.61,79.04"/>
	</g>
</g>
</svg>
