<?xml version="1.0" encoding="utf-8"?>
<!-- Generator: Adobe Illustrator 26.0.0, SVG Export Plug-In . SVG Version: 6.00 Build 0)  -->
<svg version="1.1" xmlns="http://www.w3.org/2000/svg" xmlns:xlink="http://www.w3.org/1999/xlink" x="0px" y="0px"
	 viewBox="0 0 200 200" style="enable-background:new 0 0 200 200;" xml:space="preserve">
<style type="text/css">
	.st0{fill:none;}
	.st1{clip-path:url(#SVGID_00000139278737887255987570000008267721705510994606_);fill:#FFFFFF;}
</style>
<g id="图层_2">
	<rect y="-0.08" class="st0" width="200" height="200"/>
</g>
<g id="图层_1">
	<g>
		<g>
			<defs>
				<rect id="SVGID_1_" x="2.66" y="11.41" width="195.36" height="177.97"/>
			</defs>
			<clipPath id="SVGID_00000035507811328166460280000000914093351911785899_">
				<use xlink:href="#SVGID_1_"  style="overflow:visible;"/>
			</clipPath>
			<path style="clip-path:url(#SVGID_00000035507811328166460280000000914093351911785899_);fill:#FFFFFF;" d="M182.42,25.44
				c-9.14-9.1-21.99-13.92-37.18-13.92c-23.73,0.54-35.68,10.86-44.8,22.69c-1.08-1.53-2.24-3.01-3.46-4.43
				C81.22,9.38,39.93,3.54,18.1,25.44C7.88,35.64,2.69,50.53,2.69,69.72c-2.08,36.36,53.45,92.69,82.03,114.09
				c9.15,7.12,21.93,7.12,31.08,0c4.41-3.44,13.47-10.77,24.51-21.22c3.06-2.9,3.19-7.72,0.29-10.78c-2.9-3.06-7.72-3.19-10.78-0.29
				c-10.57,10.01-19.19,16.99-23.39,20.26c-3.63,2.83-8.72,2.83-12.35,0c-16.48-12.58-45.42-39.97-60.25-62.29h19.54
				c2.94,0,5.63-1.7,6.89-4.36l6.95-14.65l19.59,44.56c1.21,2.76,3.94,4.55,6.96,4.56h0.02c3.01,0,5.74-1.77,6.96-4.52l15.58-34.91
				l9.92,19.62c1.26,2.5,3.79,4.1,6.59,4.18c2.8,0.08,5.41-1.38,6.81-3.8l6.18-10.68h20.58c-3.3,4.78-7.1,9.77-11.41,14.96
				c-6.14,8.04,4.98,17.26,11.74,9.73c20.93-25.25,31.1-46.33,31.1-64.45C197.84,50.53,192.65,35.64,182.42,25.44L182.42,25.44z
				 M141.43,94.24c-2.72,0-5.23,1.45-6.6,3.8l-1.33,2.31l-10.8-21.37c-1.33-2.63-4.05-4.25-6.99-4.18
				c-2.94,0.07-5.58,1.83-6.78,4.51l-15.09,33.83L74.46,69.06c-1.2-2.73-3.89-4.51-6.87-4.56c-2.98-0.04-5.72,1.66-7,4.36
				L48.56,94.24H24.8c-4.54-9.15-6.86-17.4-6.86-24.52c0-35.49,20.31-42.94,37.35-42.94c29.24,0,37.24,24.42,37.66,25.79
				c0.91,3.24,3.82,5.49,7.18,5.54c3.36,0.05,6.35-2.1,7.37-5.3c0.46-1.34,9.37-26.03,37.74-26.03c17.04,0,37.35,7.45,37.35,42.94
				c0,7.14-2.34,15.33-6.99,24.52L141.43,94.24L141.43,94.24z M141.43,94.24"/>
		</g>
	</g>
</g>
</svg>
